<svg width="25" height="24" viewBox="0 0 25 24" fill="none" xmlns="http://www.w3.org/2000/svg">
<path fill-rule="evenodd" clip-rule="evenodd" d="M0.673108 23.1038H0.594875C0.594875 23.0653 0.575281 23.0072 0.575281 22.9876C0.575281 22.9684 0.575281 22.9298 0.516499 22.9298H0.398935V23.1038H0.340154V22.6974H0.516499C0.594875 22.6974 0.653514 22.7169 0.653514 22.7941C0.653514 22.8522 0.633921 22.8717 0.614469 22.8908C0.634062 22.9103 0.653514 22.9297 0.653514 22.9684V23.0457C0.653514 23.0653 0.653514 23.0653 0.673108 23.0653V23.1038ZM0.594875 22.8136C0.594875 22.7555 0.555687 22.7555 0.536093 22.7555H0.398935V22.8717H0.516499C0.555687 22.8717 0.594875 22.8522 0.594875 22.8136V22.8136ZM0.927829 22.891C0.927829 22.6588 0.732032 22.465 0.477311 22.465C0.242326 22.465 0.0463867 22.6588 0.0463867 22.891C0.0463867 23.1426 0.242326 23.3364 0.477311 23.3364C0.73189 23.3362 0.927829 23.1426 0.927829 22.891ZM0.869048 22.891C0.869048 23.104 0.692844 23.2588 0.477311 23.2588C0.261778 23.2588 0.105169 23.1038 0.105169 22.891C0.105169 22.6974 0.26192 22.5231 0.477311 22.5231C0.692702 22.5231 0.869048 22.6974 0.869048 22.891ZM25 15.0697C25 15.6506 24.6278 15.9213 23.9618 15.9213H22.6889V15.3404H23.9618C24.0793 15.3404 24.1773 15.3212 24.2166 15.2826C24.2557 15.2437 24.2949 15.1856 24.2949 15.1083C24.2949 15.0307 24.2558 14.9534 24.2166 14.9148C24.1773 14.8759 24.0991 14.8567 23.9815 14.8567C23.3745 14.8372 22.6105 14.8759 22.6105 14.0242C22.6105 13.6368 22.8651 13.2109 23.5506 13.2109H24.8628V13.7918H23.6484C23.5311 13.7918 23.4526 13.7918 23.3938 13.8304C23.335 13.8885 23.296 13.9466 23.296 14.0434C23.296 14.1402 23.3548 14.1983 23.433 14.2372C23.5115 14.2564 23.5899 14.2758 23.6879 14.2758H24.0403C24.4124 14.2758 24.6476 14.3531 24.8043 14.4888C24.9216 14.6243 25 14.7987 25 15.0697V15.0697ZM22.2382 14.4888C22.0815 14.3531 21.8463 14.2758 21.4742 14.2758H21.1218C21.024 14.2758 20.9454 14.2563 20.8672 14.2372C20.7887 14.1983 20.7302 14.1402 20.7302 14.0434C20.7302 13.9466 20.7496 13.8885 20.828 13.8304C20.8868 13.7918 20.965 13.7918 21.0826 13.7918H22.297V13.2109H20.9848C20.2795 13.2109 20.0444 13.6368 20.0444 14.0242C20.0444 14.8758 20.8084 14.8372 21.4157 14.8567C21.533 14.8567 21.6115 14.8759 21.6505 14.9148C21.6896 14.9534 21.7291 15.0307 21.7291 15.1083C21.7291 15.1856 21.6897 15.2437 21.6505 15.2826C21.5918 15.3212 21.5135 15.3404 21.396 15.3404H20.1228V15.9213H21.396C22.0617 15.9213 22.434 15.6504 22.434 15.0697C22.434 14.7987 22.3558 14.6243 22.2382 14.4888V14.4888ZM19.731 15.3601H18.184V14.8179H19.692V14.2761H18.184V13.7725H19.731V13.2112H17.5375V15.9214H19.731V15.3601ZM16.8323 13.3468C16.6167 13.2306 16.3622 13.2111 16.0292 13.2111H14.5212V15.9213H15.187V14.934H15.8922C16.127 14.934 16.2643 14.9535 16.3623 15.0502C16.4799 15.1856 16.4799 15.418 16.4799 15.5923V15.9213H17.126V15.3985C17.126 15.1469 17.1066 15.0307 17.0282 14.8953C16.9694 14.8177 16.8522 14.721 16.6954 14.6629C16.8715 14.605 17.1655 14.3726 17.1655 13.9466C17.1654 13.637 17.0478 13.4627 16.8323 13.3468V13.3468ZM13.1108 13.2111H11.015L10.1728 14.1016L9.36969 13.2111H6.7255V15.9213H9.33064L10.1729 15.0307L10.976 15.9213H12.2491V15.0116H13.0718C13.6397 15.0116 14.208 14.8567 14.208 14.1016C14.2078 13.366 13.6201 13.2111 13.1108 13.2111ZM16.3034 14.334C16.2056 14.3726 16.1076 14.3726 15.99 14.3726L15.187 14.3921V13.7724H15.99C16.1076 13.7724 16.2251 13.7724 16.3034 13.8305C16.3819 13.8694 16.4404 13.9467 16.4404 14.0629C16.4404 14.1791 16.3819 14.2759 16.3034 14.334V14.334ZM13.1108 14.4695H12.249V13.7724H13.1108C13.346 13.7724 13.5026 13.8694 13.5026 14.1016C13.5026 14.334 13.3458 14.4695 13.1108 14.4695ZM10.5841 14.5662L11.6025 13.5016V15.6892L10.5841 14.5662ZM8.99755 15.3601H7.37182V14.8179H8.8212V14.2761H7.37182V13.7725H9.01714L9.74183 14.5663L8.99755 15.3601V15.3601ZM23.1783 11.2557H22.2382L21.0042 9.22289V11.2557H19.6725L19.4177 10.6555H18.0467L17.7921 11.2557H17.0281C16.7147 11.2557 16.3034 11.1782 16.0685 10.9458C15.853 10.7136 15.7354 10.4038 15.7354 9.91981C15.7354 9.51325 15.7942 9.14542 16.0878 8.85506C16.2836 8.64203 16.6363 8.54533 17.0867 8.54533H17.7134V9.1262H17.0867C16.8519 9.1262 16.7146 9.16493 16.5776 9.28113C16.46 9.39733 16.4012 9.61023 16.4012 9.90059C16.4012 10.1909 16.46 10.404 16.5776 10.5396C16.6754 10.6362 16.8519 10.675 17.0279 10.675H17.3218L18.2619 8.54547H19.2413L20.3382 11.1009V8.54533H21.3568L22.5124 10.4232V8.54533H23.1782V11.2557H23.1783V11.2557ZM15.4025 8.54533H14.7367V11.2557H15.4025V8.54533V8.54533ZM14.0117 8.66153C13.7962 8.54533 13.5614 8.54533 13.2284 8.54533H11.7201V11.2557H12.3664V10.2683H13.0715C13.3066 10.2683 13.4634 10.2876 13.5612 10.3845C13.6788 10.52 13.6591 10.7524 13.6591 10.9072V11.2557H14.3248V10.7136C14.3248 10.4813 14.3054 10.3651 14.2075 10.2295C14.1488 10.1521 14.0312 10.0552 13.8942 9.99728C14.0702 9.91981 14.3643 9.70692 14.3643 9.28099C14.3644 8.97126 14.2271 8.79696 14.0117 8.66153ZM11.25 10.6943H9.72224V10.1522H11.2304V9.59086H9.72224V9.10683H11.25V8.54547H9.05633V11.2558H11.25V10.6943ZM8.56662 8.54533H7.48938L6.68631 10.3845L5.82447 8.54533H4.76682V11.1008L3.65039 8.54533H2.67112L1.49591 11.2557H2.20101L2.45559 10.6555H3.82659L4.08117 11.2557H5.41313V9.1262L6.37281 11.2557H6.94075L7.90057 9.1262V11.2557H8.56648V8.54533H8.56662ZM19.1828 10.0747L18.7322 9.01L18.2818 10.0747H19.1828ZM13.5026 9.64896C13.4048 9.70706 13.3068 9.70706 13.1696 9.70706H12.3664V9.10697H13.1695C13.2871 9.10697 13.4239 9.10697 13.5024 9.1457C13.5807 9.2038 13.62 9.28127 13.62 9.39733C13.62 9.51339 13.5808 9.61009 13.5026 9.64896V9.64896ZM2.69057 10.0747L3.14109 9.01L3.59161 10.0747H2.69057V10.0747ZM24.8434 0.0463867H1.47618V9.80375L2.27924 8.00334H3.9832L4.21833 8.44864V8.00334H6.2162L6.66672 8.97126L7.09764 8.00334H13.4634C13.757 8.00334 14.0116 8.06144 14.2077 8.21624V8.00334H15.9508V8.21624C16.2445 8.0613 16.6166 8.00334 17.0477 8.00334H19.5743L19.8094 8.44864V8.00334H21.6701L21.9444 8.44864V8.00334H23.7658V11.7978H21.9249L21.5724 11.2171V11.7978H19.2807L19.0261 11.1784H18.4579L18.2033 11.7978H17.0086C16.5385 11.7978 16.1858 11.6816 15.951 11.5656V11.7978H13.1108V10.9266C13.1108 10.8104 13.0913 10.791 13.0129 10.791H12.9151V11.7977H7.4306V11.3137L7.2348 11.7977H6.07919L5.88339 11.333V11.7977H3.66999L3.435 11.1782H2.86692L2.61234 11.7977H1.47618V23.2394H24.8434V16.2891C24.5888 16.4053 24.2361 16.4634 23.8835 16.4634H22.1794V16.231C21.9836 16.3861 21.6309 16.4634 21.2981 16.4634H15.9312V15.5923C15.9312 15.4761 15.9118 15.4761 15.8137 15.4761H15.7158V16.4634H13.953V15.4374C13.6593 15.5728 13.3262 15.5728 13.0325 15.5728H12.8365V16.4634H10.6821L10.1729 15.8825L9.60496 16.4634H6.13783V12.6691H9.66345L10.1728 13.2496L10.7212 12.6691H13.0913C13.3653 12.6691 13.8159 12.7077 14.0117 12.9012V12.6691H16.127C16.3426 12.6691 16.754 12.7077 17.0281 12.9012V12.6691H20.2207V12.9013C20.3971 12.7464 20.7302 12.6692 21.0238 12.6692H22.8062V12.9013C23.0022 12.7659 23.2763 12.6692 23.629 12.6692H24.8434V0.0463867V0.0463867Z" fill="white"/>
</svg>
